<svg xmlns="http://www.w3.org/2000/svg" xmlns:xlink="http://www.w3.org/1999/xlink" viewBox="0 0 283.46 283.46">
  <defs>
    <style>
      .cls-1 {
        fill: none;
      }

      .cls-2 {
        isolation: isolate;
      }

      .cls-3, .cls-7 {
        fill: #244c88;
      }

      .cls-4 {
        fill: #0c7dbd;
      }

      .cls-5 {
        fill: #fbe88c;
      }

      .cls-6 {
        fill: #eebb61;
      }

      .cls-7 {
        opacity: 0.6;
      }

      .cls-8 {
        fill: #5f5f5f;
      }

      .cls-9 {
        clip-path: url(#clip-path);
      }

      .cls-10 {
        fill: #ee703d;
        opacity: 0.1;
        mix-blend-mode: multiply;
      }
    </style>
    <clipPath id="clip-path">
      <path class="cls-1" d="M162.93,36.66A31.07,31.07,0,1,1,132,5.45,31.08,31.08,0,0,1,162.93,36.66Z"/>
    </clipPath>
  </defs>
  <title>PiggyBank</title>
  <g class="cls-2">
    <g id="Livello_1" data-name="Livello 1">
      <g>
        <path class="cls-3" d="M168.47,53a5,5,0,0,0,2.69-.78,130,130,0,0,0-76.57-.64A5,5,0,0,0,98.09,53Z"/>
        <path class="cls-4" d="M36.73,123.09H5.05a5,5,0,0,0-5,5V133a2.77,2.77,0,0,1,1.93-.94c3.16,0,5.72,7.16,5.72,16s-2.56,16-5.72,16A2.73,2.73,0,0,1,0,163.12v5.39a5,5,0,0,0,5.05,5.05H36.73a5,5,0,0,0,5.05-5.05V128.13A5,5,0,0,0,36.73,123.09Z"/>
        <path class="cls-3" d="M7.65,148.08c0-8.83-2.56-16-5.72-16A2.77,2.77,0,0,0,0,133v30.09a2.73,2.73,0,0,0,1.93.94C5.09,164.06,7.65,156.9,7.65,148.08Z"/>
        <path class="cls-3" d="M74.32,90.91a5,5,0,0,1-5,5H57.68a5,5,0,0,1-5-5V56.21a5,5,0,0,1,5-5.05s16.64,7.31,16.64,10.1Z"/>
        <g>
          <path class="cls-5" d="M162.93,36.66A31.07,31.07,0,1,1,132,5.45,31.08,31.08,0,0,1,162.93,36.66Z"/>
          <path class="cls-5" d="M155.87,36.63A24,24,0,1,1,132,12.5,24,24,0,0,1,155.87,36.63Z"/>
          <path class="cls-6" d="M157.92,36.64A25.08,25.08,0,0,1,150.18,55a26,26,0,0,1-36.81-.17A25.12,25.12,0,0,1,105.8,36.4,25.07,25.07,0,0,1,113.54,18a26,26,0,0,1,36.81.17A25.09,25.09,0,0,1,157.92,36.64Zm-3.48,0a21.73,21.73,0,0,0-6.55-16A22.54,22.54,0,0,0,116,20.48a21.76,21.76,0,0,0-6.7,15.93,21.75,21.75,0,0,0,6.55,16,22.55,22.55,0,0,0,31.93.15A21.76,21.76,0,0,0,154.44,36.62ZM133.65,24.36l-.05,10.43h1.2a9.2,9.2,0,0,1,6.5,2.58,8.29,8.29,0,0,1-.05,12.27,9.18,9.18,0,0,1-6.53,2.53h-1.2V53.9a1.69,1.69,0,0,1-1.75,1.73,1.73,1.73,0,0,1-1.25-.5,1.7,1.7,0,0,1-.48-1.25V52.14h-1.2a9.16,9.16,0,0,1-6.5-2.58,8.14,8.14,0,0,1-2.69-6.15,1.74,1.74,0,1,1,3.48,0,4.76,4.76,0,0,0,1.67,3.69,5.8,5.8,0,0,0,4.06,1.54h1.2l0-10.42h-1.19a9.14,9.14,0,0,1-6.5-2.58,8.29,8.29,0,0,1,0-12.27A9.15,9.15,0,0,1,129,20.87h1.19V19.13a1.67,1.67,0,0,1,.5-1.24,1.62,1.62,0,0,1,1.25-.48,1.66,1.66,0,0,1,1.24.49,1.68,1.68,0,0,1,.49,1.25v1.74h1.19a9.23,9.23,0,0,1,6.51,2.58,8.15,8.15,0,0,1,2.68,6.15,1.68,1.68,0,0,1-.49,1.25,1.73,1.73,0,0,1-1.25.48,1.7,1.7,0,0,1-1.25-.49,1.73,1.73,0,0,1-.48-1.25,4.81,4.81,0,0,0-1.67-3.7,5.86,5.86,0,0,0-4.06-1.54Zm-3.47,0H129a5.85,5.85,0,0,0-4.08,1.5,4.89,4.89,0,0,0,0,7.39,5.87,5.87,0,0,0,4.07,1.54h1.19Zm3.41,13.91-.05,10.43h1.19a5.82,5.82,0,0,0,4.08-1.5,4.89,4.89,0,0,0,0-7.38,5.84,5.84,0,0,0-4.07-1.54Z"/>
        </g>
        <path class="cls-7" d="M254.18,251.86C254.18,266.31,199,278,130.92,278S7.65,266.31,7.65,251.86,62.84,225.7,130.92,225.7,254.18,237.41,254.18,251.86Z"/>
        <path class="cls-4" d="M246,168.75h0a93.64,93.64,0,0,0,2-19.18c0-44.84-32-83-76.78-97.38a5,5,0,0,1-2.69.78H98.09a5,5,0,0,1-3.5-1.42c-45.83,13.84-78.82,52.5-78.82,98,0,24.75,9.75,47.46,26,65.27v36.94a5,5,0,0,0,5,5H71.71a5,5,0,0,0,5.05-5l2.61-9.9a129,129,0,0,0,105,0v9.91a5,5,0,0,0,5,5H214.3a5,5,0,0,0,5-5S245,173,246,168.75Z"/>
        <path class="cls-3" d="M249.36,135.33c1.67-5.76,9.9-5.53,12.9-1.16,1.43,2.09,2.63,5.33,1.85,7.87-.45,1.45-3.21,4.2-4.91,2.79-2.43-2,2-9.33,3.2-10.9,4.12-5.35,10.07-6.78,16-3.55,3.78,2.05,7.15-3.71,3.37-5.76-7.73-4.19-16.24-3.43-22.57,2.85-4.49,4.45-8.77,12.53-6.56,19,2.4,7,11.93,6.3,16,1.13,4.9-6.26,1.52-16.48-4.33-20.93-6.95-5.29-18.91-1.73-21.4,6.86-1.2,4.14,5.25,5.91,6.44,1.78Z"/>
        <path class="cls-8" d="M54.58,144.53c.31-7.25,5.88-13.5,13.43-13.43s13.12,6.06,13.44,13.43c.11,2.73,4.37,2.75,4.26,0C85.3,135,77.94,126.8,68,126.84s-17.28,8-17.69,17.69c-.11,2.74,4.15,2.74,4.26,0Z"/>
        <path class="cls-3" d="M119.12,228c-55.07-1.88-79.87-18.69-91.05-33.13A1.63,1.63,0,0,1,28,195c32.23,68.31,176.06,97.7,218.85-30.95C246.81,164.06,217.54,231.34,119.12,228Z"/>
        <g class="cls-9">
          <rect class="cls-10" x="98.09" y="46.11" width="64.84" height="6.87"/>
        </g>
        <path class="cls-3" d="M92,90.68V75c0-2.79-16.65-10.1-16.65-10.1a5,5,0,0,0-5,5v9.34h0A26.38,26.38,0,0,1,92,90.68Z"/>
      </g>
    </g>
  </g>
</svg>
